PathFileType	4	(X/Y/Z)	 s04c0101.trc
DataRate	CameraRate	NumFrames	NumMarkers	Units	OrigDataRate	OrigDataStartFrame	OrigNumFrames
200	200	5	51	mm	200	1	2000
Frame#	Time	racr			lacr			c7			jug			rlel			rdr			llel			ldr			s2			lic			ric			lasi			rasi			rpsi			lpsi			rgt			lgt			rth1			rth2			rth3			rth4			rlfc			rmfc			rsh1			rsh2			rsh3			rsh4			rlmal			rmmal			rcal			rtoe			rmt5			lth1			lth2			lth4			lth3			llfc			lmfc			lsh1			lsh2			lsh3			lsh4			llmal			lmmal			lcal			ltoe			lmt1			lmt5			SBIKE			LBIKE			RBIKE			
		X1	Y1	Z1	X2	Y2	Z2	X3	Y3	Z3	X4	Y4	Z4	X5	Y5	Z5	X6	Y6	Z6	X7	Y7	Z7	X8	Y8	Z8	X9	Y9	Z9	X10	Y10	Z10	X11	Y11	Z11	X12	Y12	Z12	X13	Y13	Z13	X14	Y14	Z14	X15	Y15	Z15	X16	Y16	Z16	X17	Y17	Z17	X18	Y18	Z18	X19	Y19	Z19	X20	Y20	Z20	X21	Y21	Z21	X22	Y22	Z22	X23	Y23	Z23	X24	Y24	Z24	X25	Y25	Z25	X26	Y26	Z26	X27	Y27	Z27	X28	Y28	Z28	X29	Y29	Z29	X30	Y30	Z30	X31	Y31	Z31	X32	Y32	Z32	X33	Y33	Z33	X34	Y34	Z34	X35	Y35	Z35	X36	Y36	Z36	X37	Y37	Z37	X38	Y38	Z38	X39	Y39	Z39	X40	Y40	Z40	X41	Y41	Z41	X42	Y42	Z42	X43	Y43	Z43	X44	Y44	Z44	X45	Y45	Z45	X46	Y46	Z46	X47	Y47	Z47	X48	Y48	Z48	X49	Y49	Z49	X50	Y50	Z50	X51	Y51	Z51	
1	0.0050	480.148221	1455.875396	-111.306289	480.266705	1457.545860	-394.272088	454.424170	1503.901518	-259.942543	475.983118	1361.029944	-260.367845	534.813021	1150.072696	-15.935729	694.639829	907.701058	-89.381126	570.018990	1189.608819	-480.328960	700.397381	907.783400	-430.474365	-61.208280	1187.642521	-275.756442	110.863552	1196.104009	-422.268088	94.965610	1176.435731	-106.369434	NaN	NaN	NaN	135.294798	1122.070906	-149.560633	-27.782838	1224.056676	-229.313274	-29.079965	1232.782466	-303.419060	33.248582	1112.794691	-96.028088	58.979271	1131.275041	-465.618800	107.271755	962.426057	-76.967110	162.087044	893.604823	-85.185306	178.429760	809.380495	-92.672325	192.462968	909.207723	-101.223910	222.521577	671.769064	-120.762478	197.483370	655.691619	-232.150251	154.828452	559.146887	-95.374541	141.377655	473.981510	-109.445704	81.331003	410.091284	-116.989495	169.027624	463.564154	-134.948558	27.346126	266.927021	-127.311941	49.288836	274.047993	-212.265812	-46.063408	237.689321	-169.265228	251.598286	201.975595	-150.421580	181.670340	181.707032	-97.566887	124.147966	1078.056609	-474.681155	210.079848	1070.996962	-477.841388	222.743449	1101.277357	-460.284446	283.207160	1020.764280	-489.185508	421.730368	936.239041	-469.605188	457.685543	918.910645	-361.276679	384.782139	826.313644	-487.813157	362.851925	745.003186	-462.373958	301.348600	681.340275	-456.570832	387.507847	737.042418	-433.053641	224.342844	558.163491	-438.977057	221.433222	562.765181	-351.776382	140.722280	543.194251	-393.616845	439.089898	502.720587	-402.160422	366.839941	487.128322	-350.983777	365.053987	471.871421	-462.441620	-179.622509	941.332334	-278.611784	-4.140590	85.781554	-484.068043	-15.882843	80.324763	-83.286933	
2	0.0100	480.161974	1455.872813	-111.342578	480.242187	1457.557300	-394.254137	454.421999	1503.902012	-259.949675	475.956860	1361.035457	-260.375789	534.826069	1150.104919	-15.947207	694.625311	907.691697	-89.372189	570.022834	1189.598928	-480.313783	700.403058	907.775399	-430.481525	-61.200038	1187.648628	-275.779094	110.868086	1196.123675	-422.305524	94.975225	1176.417657	-106.392238	NaN	NaN	NaN	135.312939	1122.067992	-149.530601	-27.766063	1224.060180	-229.336482	-29.076758	1232.806361	-303.405374	33.272083	1112.785042	-96.051948	58.987864	1131.283346	-465.620278	107.300500	962.413227	-76.964719	162.061652	893.607906	-85.210669	178.398452	809.376883	-92.692729	192.446778	909.216924	-101.198087	222.511785	671.758162	-120.789859	197.534998	655.654987	-231.965701	154.793199	559.154858	-95.366854	141.368359	473.972620	-109.436163	81.320231	410.094358	-116.994500	169.014081	463.528928	-134.942787	27.318977	266.930025	-127.325076	49.301533	274.046833	-212.302011	-46.079487	237.691746	-169.264713	251.588660	202.002407	-150.410783	181.656647	181.720462	-97.570752	124.155638	1078.061833	-474.704020	210.080510	1070.992376	-477.858268	222.776299	1101.287249	-460.286734	283.226947	1020.774570	-489.188671	421.723637	936.225919	-469.604381	457.726483	918.940625	-361.284917	384.904886	826.332890	-487.984401	362.872389	745.004331	-462.385560	301.349599	681.356292	-456.585986	387.512404	737.041960	-433.055504	224.356100	558.168884	-438.979064	221.408933	562.795141	-351.780584	140.720236	543.195967	-393.623263	439.087839	502.724116	-402.155194	366.862652	487.097719	-350.995242	365.059656	471.866214	-462.440253	-179.622410	941.340857	-278.621571	-4.152407	85.789025	-484.054881	-15.885087	80.329136	-83.309730	
3	0.0150	480.188861	1455.891034	-111.362513	480.245356	1457.562898	-394.288205	454.419584	1503.889244	-260.003258	475.977390	1361.036542	-260.419772	534.837116	1150.084684	-15.955632	694.619519	907.683310	-89.355998	570.017571	1189.596006	-480.295658	700.405283	907.772919	-430.466642	-61.193906	1187.652819	-275.779047	110.847010	1196.116210	-422.285784	94.976157	1176.423158	-106.379420	NaN	NaN	NaN	135.318748	1122.067256	-149.543468	-27.782710	1224.067493	-229.314747	-29.077962	1232.807596	-303.404028	33.251662	1112.792205	-96.046574	58.993052	1131.279259	-465.621585	107.290131	962.427270	-76.958627	162.042442	893.630475	-85.211844	178.391732	809.366908	-92.692461	192.425175	909.230489	-101.200953	222.478166	671.754027	-120.792135	197.505690	655.659974	-231.961406	154.735409	559.180699	-95.377121	141.350661	473.962233	-109.456686	81.292641	410.091174	-116.996483	168.971467	463.519806	-134.938272	27.311390	266.924616	-127.332895	49.266584	274.047116	-212.295169	-46.088167	237.686220	-169.277895	251.566166	202.004877	-150.425922	181.641026	181.721424	-97.587479	124.147691	1078.057619	-474.704044	210.085823	1070.994462	-477.862216	222.775202	1101.272199	-460.282791	283.225412	1020.769343	-489.186465	421.737243	936.224083	-469.593048	457.721731	918.933516	-361.275844	384.922383	826.319620	-487.988643	362.874010	745.000329	-462.385774	301.353216	681.343500	-456.594513	387.507721	737.029998	-433.044869	224.355544	558.169088	-438.986736	221.414419	562.780160	-351.781920	140.723717	543.190405	-393.619890	439.088993	502.717882	-402.146578	366.858891	487.091101	-351.003723	365.058112	471.865519	-462.439538	-179.620423	941.333403	-278.616709	-4.155295	85.800938	-484.055661	-15.876446	80.327625	-83.302492	
4	0.0200	480.225474	1455.886459	-111.431358	480.248526	1457.568496	-394.322273	454.429469	1503.984814	-260.099907	475.965767	1361.050153	-260.431560	534.823844	1150.131283	-15.953242	694.618175	907.693362	-89.382832	570.016529	1189.589944	-480.280070	700.413783	907.789653	-430.501950	-61.373763	1187.648963	-275.989648	110.864636	1196.112726	-422.300705	95.007654	1176.349726	-106.378801	NaN	NaN	NaN	135.233232	1122.261970	-149.587532	-27.783167	1224.075770	-229.315705	-29.530662	1233.044078	-303.212568	33.277476	1112.798891	-96.046422	58.990568	1131.287682	-465.634350	107.196816	962.364100	-76.745306	162.473283	893.157736	-85.119957	178.380270	809.372028	-92.693638	192.407981	909.229536	-101.197022	222.456523	671.756963	-120.782287	197.655499	655.591461	-231.898414	154.793346	559.128202	-95.407442	140.196662	473.073144	-110.347352	81.255429	410.096811	-117.008037	168.763279	463.296050	-135.245990	27.270797	266.946370	-127.160046	49.242860	274.038853	-212.311704	-45.847908	237.107821	-169.103431	251.568261	202.031883	-150.416722	181.636244	181.733793	-97.569014	124.145323	1078.054508	-474.712175	210.077347	1071.001521	-477.877640	222.580396	1101.459421	-460.614478	283.233942	1020.770257	-489.188384	421.725577	936.219409	-469.603367	457.706765	918.929704	-361.274363	384.926042	826.313571	-487.996220	362.914848	744.992127	-462.498898	301.421600	681.073334	-456.116335	387.548647	737.063738	-433.213665	224.557299	558.168632	-439.166453	221.345345	562.792252	-351.500938	140.724725	543.179364	-393.621654	439.094728	502.722466	-402.166555	366.854897	487.090206	-350.989552	365.069338	471.858743	-462.435095	-179.780536	941.277789	-279.427675	-4.134520	85.796918	-484.077611	-15.870664	80.336179	-83.299118	
5	0.0250	480.256845	1455.871557	-111.468459	480.278889	1457.484825	-394.335616	454.381420	1503.799798	-260.142475	475.863727	1361.114728	-260.426393	534.777272	1150.120633	-16.024841	694.635136	907.633452	-89.470735	570.004050	1189.563058	-480.209447	700.177837	907.684529	-430.366157	-61.261467	1187.687461	-276.077685	110.865168	1196.067775	-422.247949	94.922719	1176.530747	-106.601952	NaN	NaN	NaN	135.691300	1122.664690	-149.128655	-27.713665	1224.395902	-229.377779	-29.484781	1233.114880	-303.195854	33.300723	1112.932663	-96.040890	58.870042	1131.066057	-465.443165	107.156702	962.360272	-76.866493	162.581162	893.213087	-85.066940	178.407077	809.374567	-92.737942	192.433517	909.209331	-101.128049	222.450676	671.751242	-120.785045	197.637246	655.635443	-231.919923	154.698316	559.049710	-95.374433	140.232786	473.079483	-110.346315	81.238462	410.070107	-117.009203	168.781459	463.314967	-135.258412	27.272042	267.053645	-126.954329	49.310472	274.106947	-212.404301	-45.722859	236.932112	-168.957131	251.604608	202.046239	-150.458941	181.662269	181.777885	-97.605214	124.120937	1077.938152	-474.646798	209.959182	1070.790186	-477.682644	222.553164	1101.334323	-460.470489	283.108848	1020.659836	-488.991248	421.654948	936.209812	-469.554763	457.593801	918.796883	-361.114436	384.855296	826.276240	-487.740477	362.868052	745.007263	-462.488051	301.354068	681.066379	-456.032659	387.499552	737.091507	-433.206006	224.554298	558.138471	-439.091237	221.224901	562.714497	-351.775631	140.596523	543.268431	-393.819840	439.095392	502.778732	-402.167884	366.866846	487.153767	-350.914257	365.043985	471.940626	-462.499097	-179.672380	941.422984	-278.884525	-4.029455	86.114765	-483.827724	-15.880183	80.403817	-83.232193	
